<svg xmlns="http://www.w3.org/2000/svg" xmlns:xlink="http://www.w3.org/1999/xlink" version="1.1" style="enable-background:new 0 0 512 512;" xml:space="preserve" width="512" height="512"><rect id="backgroundrect" width="100%" height="100%" x="0" y="0" fill="none" stroke="none"/>






































<g class="currentLayer" style=""><title>Layer 1</title><g id="svg_1" class="" fill="#ffffff" fill-opacity="1">
	<g id="svg_2" fill="#ffffff" fill-opacity="1">
		<path d="M315.733,25.6H8.533C3.823,25.6,0,29.423,0,34.133v256c0,4.71,3.823,8.533,8.533,8.533h307.2    c4.71,0,8.533-3.823,8.533-8.533v-256C324.267,29.423,320.444,25.6,315.733,25.6z M307.2,281.6H17.067V42.667H307.2V281.6z" id="svg_3" fill="#ffffff" fill-opacity="1"/>
	</g>
</g><g id="svg_4" class="" fill="#ffffff" fill-opacity="1">
	<g id="svg_5" fill="#ffffff" fill-opacity="1">
		<path d="M418.133,128h-102.4c-4.71,0-8.533,3.823-8.533,8.533V281.6H110.933c-4.71,0-8.533,3.823-8.533,8.533v102.4    c0,4.71,3.823,8.533,8.533,8.533h307.2c4.71,0,8.533-3.823,8.533-8.533v-256C426.667,131.823,422.844,128,418.133,128z M409.6,384    H119.467v-85.333h196.267c4.71,0,8.533-3.823,8.533-8.533V145.067H409.6V384z" id="svg_6" fill="#ffffff" fill-opacity="1"/>
	</g>
</g><g id="svg_7" class="" fill="#ffffff" fill-opacity="1">
	<g id="svg_8" fill="#ffffff" fill-opacity="1">
		<path d="M503.467,213.333h-85.333c-4.71,0-8.533,3.823-8.533,8.533V384H196.267c-4.71,0-8.533,3.823-8.533,8.533v85.333    c0,4.71,3.823,8.533,8.533,8.533h307.2c4.71,0,8.533-3.823,8.533-8.533v-256C512,217.156,508.177,213.333,503.467,213.333z     M494.933,469.333H204.8v-68.267h213.333c4.71,0,8.533-3.823,8.533-8.533V230.4h68.267V469.333z" id="svg_9" fill="#ffffff" fill-opacity="1"/>
	</g>
</g><g id="svg_10" class="" fill="#ffffff" fill-opacity="1">
	<g id="svg_11" fill="#ffffff" fill-opacity="1">
		<path d="M315.733,25.6H8.533C3.823,25.6,0,29.423,0,34.133V102.4c0,4.71,3.823,8.533,8.533,8.533h307.2    c4.71,0,8.533-3.823,8.533-8.533V34.133C324.267,29.423,320.444,25.6,315.733,25.6z M307.2,93.867H17.067v-51.2H307.2V93.867z" id="svg_12" fill="#ffffff" fill-opacity="1"/>
	</g>
</g><g id="svg_13" class="" fill="#ffffff" fill-opacity="1">
	<g id="svg_14" fill="#ffffff" fill-opacity="1">
		<path d="M273.067,59.733h-8.533c-4.71,0-8.533,3.823-8.533,8.533s3.823,8.533,8.533,8.533h8.533c4.71,0,8.533-3.823,8.533-8.533    S277.777,59.733,273.067,59.733z" id="svg_15" fill="#ffffff" fill-opacity="1"/>
	</g>
</g><g id="svg_16" class="" fill="#ffffff" fill-opacity="1">
	<g id="svg_17" fill="#ffffff" fill-opacity="1">
		<path d="M230.4,59.733h-8.533c-4.71,0-8.533,3.823-8.533,8.533s3.823,8.533,8.533,8.533h8.533c4.71,0,8.533-3.823,8.533-8.533    S235.11,59.733,230.4,59.733z" id="svg_18" fill="#ffffff" fill-opacity="1"/>
	</g>
</g><g id="svg_19" class="" fill="#ffffff" fill-opacity="1">
	<g id="svg_20" fill="#ffffff" fill-opacity="1">
		<path d="M187.733,59.733H179.2c-4.71,0-8.533,3.823-8.533,8.533S174.49,76.8,179.2,76.8h8.533c4.71,0,8.533-3.823,8.533-8.533    S192.444,59.733,187.733,59.733z" id="svg_21" fill="#ffffff" fill-opacity="1"/>
	</g>
</g><g id="svg_22" class="" fill="#ffffff" fill-opacity="1">
	<g id="svg_23" fill="#ffffff" fill-opacity="1">
		<path d="M418.133,128h-102.4c-4.71,0-8.533,3.823-8.533,8.533V204.8c0,4.71,3.823,8.533,8.533,8.533h102.4    c4.71,0,8.533-3.823,8.533-8.533v-68.267C426.667,131.823,422.844,128,418.133,128z M409.6,196.267h-85.333v-51.2H409.6V196.267z" id="svg_24" fill="#ffffff" fill-opacity="1"/>
	</g>
</g><g id="svg_25" class="" fill="#ffffff" fill-opacity="1">
	<g id="svg_26" fill="#ffffff" fill-opacity="1">
		<path d="M375.467,162.133H358.4c-4.71,0-8.533,3.823-8.533,8.533c0,4.71,3.823,8.533,8.533,8.533h17.067    c4.71,0,8.533-3.823,8.533-8.533C384,165.956,380.177,162.133,375.467,162.133z" id="svg_27" fill="#ffffff" fill-opacity="1"/>
	</g>
</g><g id="svg_28" class="" fill="#ffffff" fill-opacity="1">
	<g id="svg_29" fill="#ffffff" fill-opacity="1">
		<path d="M503.467,213.333h-85.333c-4.71,0-8.533,3.823-8.533,8.533v68.267c0,4.71,3.823,8.533,8.533,8.533h85.333    c4.71,0,8.533-3.823,8.533-8.533v-68.267C512,217.156,508.177,213.333,503.467,213.333z M494.933,281.6h-68.267v-51.2h68.267    V281.6z" id="svg_30" fill="#ffffff" fill-opacity="1"/>
	</g>
</g><g id="svg_31" class="" fill="#ffffff" fill-opacity="1">
	<g id="svg_32" fill="#ffffff" fill-opacity="1">
		<path d="M469.333,247.467h-17.067c-4.71,0-8.533,3.823-8.533,8.533c0,4.71,3.823,8.533,8.533,8.533h17.067    c4.71,0,8.533-3.823,8.533-8.533C477.867,251.29,474.044,247.467,469.333,247.467z" id="svg_33" fill="#ffffff" fill-opacity="1"/>
	</g>
</g><g id="svg_34" class="" fill="#ffffff" fill-opacity="1">
	<g id="svg_35" fill="#ffffff" fill-opacity="1">
		<path d="M170.667,153.6H51.2c-4.71,0-8.533,3.823-8.533,8.533c0,4.71,3.823,8.533,8.533,8.533h119.467    c4.71,0,8.533-3.823,8.533-8.533C179.2,157.423,175.377,153.6,170.667,153.6z" id="svg_36" fill="#ffffff" fill-opacity="1"/>
	</g>
</g><g id="svg_37" class="" fill="#ffffff" fill-opacity="1">
	<g id="svg_38" fill="#ffffff" fill-opacity="1">
		<path d="M273.067,153.6h-59.733c-4.71,0-8.533,3.823-8.533,8.533c0,4.71,3.823,8.533,8.533,8.533h59.733    c4.71,0,8.533-3.823,8.533-8.533C281.6,157.423,277.777,153.6,273.067,153.6z" id="svg_39" fill="#ffffff" fill-opacity="1"/>
	</g>
</g><g id="svg_40" class="" fill="#ffffff" fill-opacity="1">
	<g id="svg_41" fill="#ffffff" fill-opacity="1">
		<path d="M85.333,187.733H51.2c-4.71,0-8.533,3.823-8.533,8.533S46.49,204.8,51.2,204.8h34.133c4.71,0,8.533-3.823,8.533-8.533    S90.044,187.733,85.333,187.733z" id="svg_42" fill="#ffffff" fill-opacity="1"/>
	</g>
</g><g id="svg_43" class="" fill="#ffffff" fill-opacity="1">
	<g id="svg_44" fill="#ffffff" fill-opacity="1">
		<path d="M273.067,187.733H128c-4.71,0-8.533,3.823-8.533,8.533S123.29,204.8,128,204.8h145.067c4.71,0,8.533-3.823,8.533-8.533    S277.777,187.733,273.067,187.733z" id="svg_45" fill="#ffffff" fill-opacity="1"/>
	</g>
</g><g id="svg_46" class="" fill="#ffffff" fill-opacity="1">
	<g id="svg_47" fill="#ffffff" fill-opacity="1">
		<path d="M170.667,221.867H51.2c-4.71,0-8.533,3.823-8.533,8.533c0,4.71,3.823,8.533,8.533,8.533h119.467    c4.71,0,8.533-3.823,8.533-8.533C179.2,225.69,175.377,221.867,170.667,221.867z" id="svg_48" fill="#ffffff" fill-opacity="1"/>
	</g>
</g><g id="svg_49" class="" fill="#ffffff" fill-opacity="1">
	<g id="svg_50" fill="#ffffff" fill-opacity="1">
		<path d="M247.467,221.867h-34.133c-4.71,0-8.533,3.823-8.533,8.533c0,4.71,3.823,8.533,8.533,8.533h34.133    c4.71,0,8.533-3.823,8.533-8.533C256,225.69,252.177,221.867,247.467,221.867z" id="svg_51" fill="#ffffff" fill-opacity="1"/>
	</g>
</g><g id="svg_52" class="" fill="#ffffff" fill-opacity="1">
	<g id="svg_53" fill="#ffffff" fill-opacity="1">
		<path d="M375.467,247.467h-25.6c-4.71,0-8.533,3.823-8.533,8.533c0,4.71,3.823,8.533,8.533,8.533h25.6    c4.71,0,8.533-3.823,8.533-8.533C384,251.29,380.177,247.467,375.467,247.467z" id="svg_54" fill="#ffffff" fill-opacity="1"/>
	</g>
</g><g id="svg_55" class="" fill="#ffffff" fill-opacity="1">
	<g id="svg_56" fill="#ffffff" fill-opacity="1">
		<path d="M375.467,281.6h-59.733c-4.71,0-8.533,3.823-8.533,8.533c0,4.71,3.823,8.533,8.533,8.533h59.733    c4.71,0,8.533-3.823,8.533-8.533C384,285.423,380.177,281.6,375.467,281.6z" id="svg_57" fill="#ffffff" fill-opacity="1"/>
	</g>
</g><g id="svg_58" class="" fill="#ffffff" fill-opacity="1">
	<g id="svg_59" fill="#ffffff" fill-opacity="1">
		<path d="M273.067,315.733H153.6c-4.71,0-8.533,3.823-8.533,8.533s3.823,8.533,8.533,8.533h119.467c4.71,0,8.533-3.823,8.533-8.533    S277.777,315.733,273.067,315.733z" id="svg_60" fill="#ffffff" fill-opacity="1"/>
	</g>
</g><g id="svg_61" class="" fill="#ffffff" fill-opacity="1">
	<g id="svg_62" fill="#ffffff" fill-opacity="1">
		<path d="M349.867,315.733h-34.133c-4.71,0-8.533,3.823-8.533,8.533s3.823,8.533,8.533,8.533h34.133    c4.71,0,8.533-3.823,8.533-8.533S354.577,315.733,349.867,315.733z" id="svg_63" fill="#ffffff" fill-opacity="1"/>
	</g>
</g><g id="svg_64" class="" fill="#ffffff" fill-opacity="1">
	<g id="svg_65" fill="#ffffff" fill-opacity="1">
		<path d="M366.933,426.667H247.467c-4.71,0-8.533,3.823-8.533,8.533s3.823,8.533,8.533,8.533h119.467    c4.71,0,8.533-3.823,8.533-8.533S371.644,426.667,366.933,426.667z" id="svg_66" fill="#ffffff" fill-opacity="1"/>
	</g>
</g><g id="svg_67" class="" fill="#ffffff" fill-opacity="1">
	<g id="svg_68" fill="#ffffff" fill-opacity="1">
		<path d="M452.267,426.667H409.6c-4.71,0-8.533,3.823-8.533,8.533s3.823,8.533,8.533,8.533h42.667c4.71,0,8.533-3.823,8.533-8.533    S456.977,426.667,452.267,426.667z" id="svg_69" fill="#ffffff" fill-opacity="1"/>
	</g>
</g><g id="svg_70">
</g><g id="svg_71">
</g><g id="svg_72">
</g><g id="svg_73">
</g><g id="svg_74">
</g><g id="svg_75">
</g><g id="svg_76">
</g><g id="svg_77">
</g><g id="svg_78">
</g><g id="svg_79">
</g><g id="svg_80">
</g><g id="svg_81">
</g><g id="svg_82">
</g><g id="svg_83">
</g><g id="svg_84">
</g><image id="svg_85" x="7" y="165" width="1" height="0" style="color: rgb(0, 0, 0);" xlink:href="logo/vector_paint_icon256.png" class=""/></g></svg>